<mxfile host="app.diagrams.net" modified="2023-11-24T07:51:16.770Z" agent="Mozilla/5.0 (Windows NT 10.0; Win64; x64) AppleWebKit/537.36 (KHTML, like Gecko) Chrome/113.0.0.0 Safari/537.36" version="22.1.3" etag="bOu-LU8ihExmjI5O2PCt" type="github">
  <diagram name="Page-1" id="foMK3AXunjrYHfhkrN49">
    <mxGraphModel>
      <root>
        <mxCell id="0" />
        <mxCell id="1" parent="0" />
      </root>
    </mxGraphModel>
  </diagram>
</mxfile>
